<?xml version="1.0" standalone="no"?>
<!DOCTYPE svg PUBLIC "-//W3C//DTD SVG 20010904//EN"
 "http://www.w3.org/TR/2001/REC-SVG-20010904/DTD/svg10.dtd">
<svg version="1.0" xmlns="http://www.w3.org/2000/svg"
 width="260.000000pt" height="260.000000pt" viewBox="0 0 260.000000 260.000000"
 preserveAspectRatio="xMidYMid meet">
<metadata>
Created by potrace 1.14, written by Peter Selinger 2001-2017
</metadata>
<g transform="translate(0.000000,260.000000) scale(0.100000,-0.100000)"
fill="#000000" stroke="none">
<path d="M0 1300 l0 -1300 1300 0 1300 0 0 1300 0 1300 -1300 0 -1300 0 0
-1300z m1269 965 c35 -18 41 -32 41 -102 0 -48 4 -58 31 -85 30 -30 31 -31
107 -25 90 7 125 -6 160 -57 26 -38 32 -74 66 -370 19 -163 28 -214 43 -235
11 -15 70 -51 140 -86 143 -71 149 -76 157 -119 7 -36 -22 -188 -47 -247 -29
-71 -69 -228 -60 -242 18 -30 131 -126 186 -157 57 -32 87 -62 87 -88 0 -24
-48 -62 -79 -62 -49 0 -129 35 -175 78 -50 46 -102 67 -137 53 -13 -5 -45 -28
-72 -51 -56 -49 -129 -80 -192 -80 -60 0 -145 33 -181 71 -73 77 -155 79 -224
4 -62 -67 -178 -92 -270 -59 -29 10 -76 40 -105 65 -82 72 -116 72 -199 4 -63
-51 -150 -88 -190 -81 -39 7 -79 47 -74 73 2 10 26 32 53 50 68 43 121 84 179
138 55 51 55 59 17 170 -93 272 -105 322 -91 368 10 33 19 42 66 63 30 13 71
35 92 48 20 13 56 30 80 37 54 16 82 50 82 98 0 21 13 116 29 212 16 96 32
208 36 249 7 80 24 123 54 140 11 5 65 10 121 10 99 0 102 1 131 29 26 26 29
36 29 94 0 65 10 85 50 100 24 9 29 8 59 -8z"/>
<path d="M1043 1899 c-56 -16 -63 -36 -99 -265 -17 -106 -17 -113 -1 -138 10
-14 23 -26 29 -26 24 0 142 53 181 81 22 16 52 29 67 29 14 0 72 -23 128 -51
106 -52 146 -59 166 -27 7 12 6 65 -6 185 -22 222 -12 213 -222 213 -85 0
-166 2 -182 4 -16 3 -44 1 -61 -5z"/>
<path d="M1065 1341 c-16 -4 -61 -24 -100 -44 -89 -46 -241 -113 -278 -121
-16 -4 -40 -18 -54 -32 -29 -29 -28 -41 10 -154 14 -41 38 -122 53 -180 28
-104 28 -105 93 -168 36 -35 85 -72 109 -83 l43 -20 42 20 c23 12 72 49 110
84 l67 63 0 300 c0 225 -3 304 -12 316 -17 21 -46 27 -83 19z"/>
<path d="M1320 1321 c-6 -12 -10 -131 -10 -317 l0 -298 68 -64 c37 -35 86 -72
109 -83 52 -24 78 -16 143 45 25 23 58 50 72 60 30 20 50 68 68 166 6 36 23
90 36 122 53 127 51 187 -8 212 -18 8 -64 29 -103 46 -38 18 -94 41 -124 51
-29 10 -75 32 -102 49 -60 37 -132 42 -149 11z"/>
</g>
</svg>
